
<svg xmlns="http://www.w3.org/2000/svg" width="800" height="240" viewBox="0 0 800 240">
  <defs>
    <linearGradient id="g2" x1="0" y1="0" x2="1" y2="1">
      <stop offset="0%" stop-color="#41BDF5"/>
      <stop offset="100%" stop-color="#1E90FF"/>
    </linearGradient>
  </defs>
  <rect x="0" y="0" width="800" height="240" rx="28" fill="url(#g2)"/>
  <g transform="translate(30,30)" fill="#fff">
    <path d="M0 64h64l24-32h80l24 32h64a32 32 0 0 1 32 32v64a32 32 32 0 0 1-32 32H0a32 32 0 0 1-32-32v-64A32 32 0 0 1 0 64z" transform="translate(0,-10)"/>
    <circle cx="160" cy="130" r="50"/>
    <circle cx="240" cy="95" r="12"/>
  </g>
  <g fill="#fff" font-family="Inter, system-ui, -apple-system, Segoe UI, Roboto, Ubuntu, Cantarell, Noto Sans, Helvetica Neue, Arial, sans-serif">
    <text x="330" y="140" font-size="72" font-weight="700">SnapCam</text>
    <text x="330" y="180" font-size="28" opacity="0.85">Virtual Snapshot Camera</text>
  </g>
</svg>
